<svg version="1.1" xmlns="http://www.w3.org/2000/svg" x="0" y="0" width="90" height="40" viewBox="0 0 2048.6 807.6" xml:space="preserve"><g id="BGA_LOGO"><linearGradient id="ARENA_Ian_Parovel_00000067953553269764250560000015267995460751036035_" gradientUnits="userSpaceOnUse" x1="511.669" y1="1762.59" x2="1915.09" y2="359.169"><stop offset="0" stop-color="#57b8b8"></stop><stop offset=".117" stop-color="#5976cc"></stop><stop offset=".5" stop-color="#7f4edc"></stop><stop offset=".808" stop-color="#861dd1"></stop><stop offset="1" stop-color="#b7339f"></stop></linearGradient><path id="ARENA_Ian_Parovel_00000103234923814469300090000000541550232882079368_" style="fill: url(&quot;#ARENA_Ian_Parovel_00000067953553269764250560000015267995460751036035_&quot;);" d="M2037.1 685.2c-64.5-186.9-129.3-373.8-194.5-560.5-1.4-4.1-9-8.7-13.8-8.7-40.2-.7-80.5-.9-120.8.2-5.9.2-14.9 6.4-16.8 11.9-58.5 167-116.9 334.1-175.1 501.2-7.1 20.4-13.9 40.8-21.4 62.7 53 0 103.9.2 154.8-.4 3.4 0 8.6-5.8 9.8-9.8 9.7-30.4 18.3-61.1 28.3-91.3 1.6-4.7 8.8-10.7 13.5-10.7 44-.7 88.1-.7 132.1 0 5.7.9 10.6 4.5 13.1 9.6 10.3 30.6 19.3 61.7 29.2 92.5 1.3 3.9 5.6 9.8 8.6 9.8 51.2.6 102.5.4 154.6.4-.4-2.3-.9-4.6-1.6-6.9zm-322.6-212.7c17.5-58.5 34.7-115.7 53-177l50.6 177h-103.6z"></path><linearGradient id="GAME_00000151533452163903707450000016676018798025480125_" gradientUnits="userSpaceOnUse" x1="530.872" y1="1162.037" x2="1720.24" y2="-27.331"><stop offset="0" stop-color="#57b8b8"></stop><stop offset=".117" stop-color="#5976cc"></stop><stop offset=".5" stop-color="#7f4edc"></stop><stop offset=".808" stop-color="#861dd1"></stop><stop offset="1" stop-color="#b7339f"></stop></linearGradient><path id="GAME_00000163761885877893730070000000550133606845957274_" style="fill: url(&quot;#GAME_00000151533452163903707450000016676018798025480125_&quot;);" d="M1253.2 385.5c-2.5 0-6.8 6.2-6.8 9.5-.5 30.2 0 60.5-.5 90.7-.2 9 2.2 11.8 11.4 11.6 28.1-.6 56.2-.2 88.4-.2-10.6 9.3-17.8 16.4-25.8 22.7-72.3 57-172.2 40-208.8-37.2-26.2-55.2-24.5-111.5 4.8-165.4 28.4-52.4 84.8-74.4 142.1-57.4 37.2 11.1 65.5 33.6 84.6 68.7 31.9-24.5 63.1-48.3 94.3-72.3 23.5-18 24.2-18.7 5.3-42.1-67.1-83.1-157.1-109.1-258.6-95.2-137.7 18.9-231.4 114.2-246.2 252.3-11.1 103 19.3 194.3 101.7 262.4 76.5 63.2 216.6 86.8 307.4 10.8 1.6-1 3.3-1.7 5-2.4v49.9H1479v-307c-75.9.2-150.8.1-225.8.6z"></path><linearGradient id="BOARD_00000059273792668629925330000005444347453367655310_" gradientUnits="userSpaceOnUse" x1="309.609" y1="593.129" x2="1406.524" y2="-503.786"><stop offset="0" stop-color="#57b8b8"></stop><stop offset=".117" stop-color="#5976cc"></stop><stop offset=".5" stop-color="#7f4edc"></stop><stop offset=".808" stop-color="#861dd1"></stop><stop offset="1" stop-color="#b7339f"></stop></linearGradient><path id="BOARD_00000145773971625644088980000015040708006181105847_" style="fill: url(&quot;#BOARD_00000059273792668629925330000005444347453367655310_&quot;);" d="M832.9 398c-.6-.2-1-1.1-1.9-2.1 3.3-2.1 6.4-4.1 9.6-6 55.8-32.8 82.1-101.8 64.1-168-18.7-68.3-68-106.4-137.6-106.4H473.9c-4.9 0-9.9.3-15 .8-41 4.1-74.1 21.5-93.2 60.1-.8 1.1-2 1.7-3.4 1.7-44.2-6.6-89.4-1.9-131.3 13.8-1.6.6-4.1 0-5.6-1-9.5-5.8-18.3-13.4-28.5-17.6-50.4-20.6-116 1.7-146.4 49.4-29 45.5-16.6 98 29.6 120.8 1.1.5 1.9 3.3 1.5 4.7-11 37-12.3 74.3-3.6 112 .8 3.4-.2 4.5-3 5.8-26 12.2-46.5 30.2-57.4 57.2-4.4 10.9-6.4 22.7-9.5 34.1v15.2c.5 3.2 1.1 6.4 1.5 9.6 4.8 35.3 36.4 64.4 72 65.5 31.5 1 57.5-11.4 78.5-34.5 5.1-5.6 9.4-12.1 14.1-18.2.4.2.9.4 1.3.7 63.4 38.7 131.1 47.2 202.6 28.9 1.5-.4 4.1.6 5.3 1.8 10.2 9.7 19.1 20.8 30.2 29.1 34.7 25.9 71.9 39 111.3 36.2 15.8.2 38.7.3 41.5.2 91.4 0 74.2.6 165.6-.5 25.8-.4 51.6-3.2 76.8-8.6C884.4 667 929 620.8 934.3 556.6c6.4-77.4-26-127.9-101.4-158.6zM544.3 599c-40.6 26.7-91 21-129.2-12.3-22.4-19.6-33.4-44.4-36.5-73.4-.6-6.7-1.8-13.2-3.6-19.7-2.8-10.2-9.8-15.1-20.2-14.8-1.2 0-2.9 2.4-3.4 3.9-7.5 26.9-7 53.9.2 80.8.4 1.4.7 2.9 1.4 5.4-12.7 1.7-25 4-37.4 4.7C272 576.1 231 567 193.5 544c-2.7-1.6-4.5-5-6.1-8-1.6-3-1.9-6.7-3.7-9.4-1.5-2.2-5-5.2-6.8-4.7-2.9.8-6.9 3.7-7.4 6.4-1.5 7.5-.9 15.4-2.3 22.9-4.1 22-18.9 35.8-37.6 45.7-22.5 11.8-45.2 9.8-61.3-4.3C51 577.4 43.9 550.3 51.9 528c8.4-23.4 23-41 47.8-47.7 8.2-2.3 17-2.5 25.5-3.6 6-.8 10.6-3.6 12.3-9.6.3-1.1-1-3.5-2.2-4.1-2.1-1.1-4.5-1.8-6.9-1.8-7.6-.2-10.4-4.9-12.6-11.5-10.7-31-12.6-62.5-6.3-94.5.2-1 2.4-2.3 3.6-2.2 16.6 1.8 33.5.2 49.5-4.8 1.5-.4 3.2-3.1 3.2-4.6-.2-7.2-4.5-11-12.6-11.9-10.3-1.1-20.8-1.3-30.8-3.5-34.4-7.7-51.9-41.8-38.8-74.5 17.8-44.5 73.2-65.4 113.1-42.5 13.4 7.7 24.4 17.8 26.7 33.9 1 6.7-1.1 14-2.2 20.9-1.6 10.1 1.4 15.4 9.5 14.8 2.7-.2 5.8-2.3 7.7-4.5 11.9-13.6 12.4-29.7 8.7-46.2-1.6-7.2-4.5-14.1-7.4-22.9 15.7-3.5 31.4-7.9 47.4-10.4 22.4-3.5 44.9-2.7 67.2 1.2 3.9.7 5.5 1.5 5.2 6.3-1.3 21.9 5.9 41.2 19.5 58.2.8 1 3.1 1.5 4.4 1.1 8.5-2.7 11.5-8.7 9.6-17.8-1.7-8-4.1-16-4.8-24.1-2.1-21.5 8.8-37.1 24.8-49.6 35-27.2 96-19.3 122.2 15.5 10.2 13.5 13.1 30 10.4 45.3l-1 4.6c-5.3 20.7-21 38.5-43.4 43.1-7.1 1.5-14.4 2.6-21.3 5.1-2.8 1-5.6 4.8-6.3 7.7-1 4.5 1.8 8 6.6 9.1l17.9 5.6c9.9 22.6 14.8 47.1 14.3 71.9 0 .4-.1.7-.1.4-10.9 0-21.6-.2-32.3 0-12.5.3-23.3 5.4-33.3 12.2-3.8 2.6-7.1 6.5-4.8 10.8 2 3.8 5.8 8.6 9.5 9.3 7.3 1.4 14.8 1.3 22.1-.1 18.2-3.6 35.1-.7 50.8 8.4 34.6 20 57.8 48.6 63.1 89.1 5.1 38.5-11.5 68.1-43.1 88.9zm59-260.9-.1-85.6c41.4 0 82.6-1.9 123.4.8 19.5 1.3 28.8 21.8 26.9 46.3-1.9 23.5-12.9 37.5-35.1 38.5-33.7 1.5-67.6.7-101.4.7-4.2-.1-8.4-.5-13.7-.7zm170.2 176.5c-1 24.9-17.3 43.2-42.4 44 0 .1-43.3.2-71.1.2.8-14.5-.4-29.4-4-44.4-4.5-18.8-11.5-35.9-20.7-51.2 37.8-.2 65.8-.8 105.4.7 20 .6 33.8 25 32.8 50.7z"></path></g></svg>